<svg width="539" height="587" viewBox="0 0 539 587" fill="none" xmlns="http://www.w3.org/2000/svg">
<path d="M936.711 -71.0176C937.51 -69.9493 938.303 -68.8773 939.092 -67.8027L938.287 -67.2119C939.073 -66.1402 939.854 -65.0653 940.63 -63.9873L941.441 -64.5713C942.223 -63.4849 942.997 -62.3944 943.768 -61.3018L942.952 -60.7266C943.721 -59.6364 944.484 -58.5427 945.241 -57.4463L946.063 -58.0146C946.823 -56.9155 947.575 -55.8124 948.323 -54.707L947.497 -54.1475C948.243 -53.0448 948.984 -51.9388 949.719 -50.8301L950.552 -51.3818C951.288 -50.2707 952.017 -49.1553 952.742 -48.0381L951.906 -47.4941C952.632 -46.3766 953.352 -45.2564 954.065 -44.1328L954.907 -44.668C955.624 -43.5391 956.336 -42.4073 957.041 -41.2725L956.193 -40.7451C956.897 -39.6131 957.595 -38.4778 958.287 -37.3398L959.14 -37.8594C959.833 -36.7187 960.521 -35.5753 961.203 -34.4287L960.346 -33.918C961.026 -32.7741 961.701 -31.6272 962.369 -30.4775L963.231 -30.9795C963.902 -29.8265 964.566 -28.6705 965.225 -27.5117L964.357 -27.0176C965.016 -25.858 965.67 -24.6956 966.316 -23.5303L967.188 -24.0146C967.837 -22.8465 968.48 -21.6758 969.116 -20.502L968.238 -20.0254C968.873 -18.8544 969.501 -17.6805 970.124 -16.5039L971.006 -16.9707C971.63 -15.791 972.249 -14.6092 972.861 -13.4238L971.974 -12.9648C972.584 -11.7827 973.188 -10.5978 973.786 -9.41016L974.678 -9.85938C975.278 -8.66648 975.873 -7.47087 976.461 -6.27246L975.565 -5.83203C976.153 -4.63576 976.733 -3.43609 977.308 -2.23438L978.207 -2.66602C978.783 -1.46086 979.354 -0.253536 979.918 0.957031L979.013 1.37891C979.575 2.58589 980.13 3.79551 980.68 5.00781L981.588 4.5957C982.139 5.81137 982.685 7.02904 983.223 8.25L982.309 8.65332C982.845 9.87148 983.376 11.0921 983.9 12.3154L984.817 11.9219C985.343 13.1496 985.864 14.3794 986.377 15.6123L985.454 15.9961C985.966 17.2255 986.471 18.4578 986.97 19.6924L987.895 19.3184C988.394 20.5562 988.889 21.7961 989.376 23.0391L988.446 23.4043C988.932 24.6439 989.411 25.8863 989.884 27.1309L990.815 26.7754C991.289 28.0234 991.758 29.2734 992.219 30.5264L991.281 30.8721C991.741 32.1213 992.194 33.3728 992.64 34.627L993.579 34.292C994.026 35.5496 994.468 36.8089 994.902 38.0713H994.903L993.958 38.3965C994.391 39.6554 994.817 40.917 995.236 42.1807L996.183 41.8662C996.603 43.1331 997.02 44.4013 997.427 45.6729V45.6738L996.474 45.9785C996.88 47.2469 997.279 48.518 997.672 49.791L998.625 49.4961C999.018 50.771 999.407 52.0476 999.786 53.3271V53.3281L998.828 53.6123C999.206 54.8876 999.578 56.1655 999.942 57.4453L1000.9 57.1709C1001.27 58.4543 1001.63 59.7395 1001.98 61.0273H1001.98L1001.02 61.291C1001.37 62.5752 1001.71 63.8618 1002.05 65.1504L1003.01 64.8975C1003.35 66.1896 1003.68 67.4837 1004.01 68.7803L1003.04 69.0225C1003.36 70.3141 1003.68 71.6084 1003.99 72.9043L1004.96 72.6719C1005.27 73.9681 1005.57 75.266 1005.87 76.5664L1004.89 76.7881C1005.19 78.0848 1005.48 79.3837 1005.76 80.6846L1006.73 80.4736C1007.01 81.7784 1007.29 83.0847 1007.56 84.3936L1006.58 84.5938C1006.85 85.8987 1007.11 87.2057 1007.36 88.5146L1008.34 88.3252C1008.59 89.6377 1008.84 90.9521 1009.08 92.2686L1008.1 92.4473C1008.33 93.7538 1008.56 95.0627 1008.79 96.373L1009.77 96.2051C1010 97.5183 1010.21 98.8334 1010.42 100.15L1009.44 100.308C1009.65 101.621 1009.85 102.937 1010.04 104.254L1011.03 104.106C1011.23 105.428 1011.42 106.75 1011.6 108.075L1010.61 108.211C1010.79 109.532 1010.96 110.854 1011.13 112.179L1012.12 112.054C1012.29 113.377 1012.45 114.702 1012.6 116.029L1011.61 116.144C1011.76 117.462 1011.9 118.782 1012.04 120.104L1013.03 120C1013.17 121.325 1013.3 122.653 1013.42 123.981L1012.43 124.073C1012.55 125.398 1012.67 126.725 1012.78 128.054L1013.77 127.973C1013.88 129.305 1013.98 130.638 1014.08 131.974L1013.08 132.044C1013.18 133.376 1013.26 134.709 1013.34 136.044L1014.34 135.984V135.983C1014.42 137.31 1014.49 138.637 1014.56 139.967L1013.56 140.016C1013.63 141.341 1013.68 142.668 1013.73 143.996L1014.73 143.958C1014.78 145.29 1014.82 146.624 1014.86 147.959L1013.86 147.986C1013.9 149.318 1013.93 150.651 1013.95 151.985L1014.95 151.969C1014.97 153.307 1014.98 154.646 1014.99 155.987L1013.99 155.993C1014 156.662 1014 157.331 1014 158C1014 158.67 1014 159.34 1013.99 160.009L1014.99 160.013C1014.98 161.354 1014.97 162.693 1014.95 164.031L1013.95 164.017C1013.93 165.351 1013.9 166.684 1013.86 168.016L1014.86 168.041C1014.82 169.376 1014.78 170.71 1014.73 172.042L1013.73 172.005C1013.68 173.333 1013.63 174.661 1013.56 175.986L1014.56 176.034C1014.49 177.363 1014.42 178.691 1014.34 180.017L1013.34 179.957C1013.26 181.292 1013.18 182.625 1013.08 183.957L1014.08 184.026C1013.98 185.362 1013.88 186.695 1013.77 188.027L1012.78 187.947C1012.67 189.276 1012.55 190.603 1012.43 191.928L1013.42 192.019C1013.3 193.347 1013.17 194.675 1013.03 196L1012.04 195.897C1011.9 197.219 1011.76 198.539 1011.61 199.857L1012.6 199.971C1012.45 201.298 1012.29 202.623 1012.12 203.946L1011.13 203.822C1010.96 205.147 1010.79 206.469 1010.61 207.79L1011.6 207.925C1011.42 209.249 1011.23 210.572 1011.03 211.893L1010.04 211.747C1009.85 213.064 1009.65 214.38 1009.44 215.693L1010.42 215.85C1010.21 217.167 1010 218.482 1009.77 219.795L1008.79 219.628C1008.56 220.938 1008.33 222.247 1008.1 223.554L1009.08 223.731C1008.84 225.048 1008.59 226.362 1008.34 227.675L1007.36 227.486C1007.11 228.795 1006.85 230.102 1006.58 231.407L1007.56 231.606C1007.29 232.915 1007.01 234.222 1006.73 235.526L1005.76 235.316C1005.48 236.617 1005.19 237.916 1004.89 239.213L1005.87 239.434C1005.57 240.734 1005.27 242.032 1004.96 243.328L1003.99 243.097C1003.68 244.392 1003.36 245.686 1003.04 246.978L1004.01 247.22C1003.68 248.516 1003.35 249.81 1003.01 251.103L1002.05 250.85C1001.71 252.138 1001.37 253.425 1001.02 254.709L1001.98 254.972C1001.63 256.26 1001.27 257.545 1000.9 258.828L999.942 258.556C999.578 259.835 999.205 261.113 998.827 262.388L999.786 262.672C999.407 263.951 999.018 265.228 998.625 266.503L997.672 266.209C997.279 267.482 996.88 268.753 996.474 270.021L997.427 270.326C997.02 271.598 996.603 272.867 996.183 274.134L995.235 273.819C994.816 275.083 994.391 276.345 993.958 277.604L994.902 277.928C994.468 279.19 994.026 280.449 993.579 281.707L992.64 281.373C992.194 282.627 991.741 283.88 991.281 285.129L992.219 285.473C991.758 286.726 991.289 287.976 990.815 289.224L989.884 288.87C989.411 290.115 988.932 291.357 988.446 292.597L989.376 292.96C988.889 294.203 988.394 295.443 987.895 296.681L986.97 296.308C986.471 297.542 985.966 298.774 985.454 300.004L986.377 300.387C985.864 301.62 985.343 302.849 984.817 304.077L983.9 303.685C983.376 304.908 982.845 306.129 982.309 307.347L983.223 307.749C982.685 308.97 982.139 310.188 981.588 311.403L980.68 310.992C980.13 312.204 979.575 313.414 979.013 314.621L979.918 315.043C979.354 316.253 978.783 317.46 978.207 318.665L977.308 318.234C976.733 319.436 976.153 320.636 975.565 321.832L976.461 322.271C975.873 323.47 975.278 324.665 974.678 325.858L973.786 325.41C973.188 326.598 972.584 327.783 971.974 328.965L972.861 329.423C972.249 330.608 971.63 331.79 971.006 332.97L970.124 332.504C969.501 333.681 968.873 334.854 968.238 336.025L969.116 336.501C968.48 337.675 967.837 338.846 967.188 340.014L966.316 339.53C965.67 340.696 965.016 341.858 964.357 343.018L965.225 343.511C964.566 344.67 963.902 345.826 963.231 346.979L962.369 346.478C961.701 347.627 961.026 348.773 960.346 349.917L961.203 350.428C960.521 351.574 959.833 352.718 959.14 353.858L958.287 353.34C957.595 354.478 956.897 355.613 956.193 356.745L957.041 357.271C956.336 358.406 955.624 359.538 954.907 360.667L954.065 360.132C953.352 361.255 952.632 362.377 951.906 363.494L952.743 364.036C952.018 365.154 951.288 366.269 950.552 367.381L949.719 366.83C948.984 367.939 948.243 369.044 947.497 370.146L948.323 370.706C947.575 371.811 946.823 372.914 946.063 374.013L945.242 373.445C944.485 374.542 943.721 375.635 942.952 376.726L943.768 377.3C942.997 378.393 942.223 379.484 941.441 380.57L940.63 379.987C939.854 381.065 939.073 382.14 938.287 383.212L939.092 383.802C938.303 384.876 937.51 385.948 936.711 387.017L935.911 386.418C935.114 387.484 934.311 388.546 933.503 389.605L934.296 390.21C933.486 391.272 932.671 392.331 931.851 393.387L931.062 392.773C930.244 393.826 929.419 394.876 928.59 395.922L929.372 396.541C928.543 397.586 927.71 398.628 926.871 399.667L926.095 399.04C925.26 400.073 924.419 401.104 923.573 402.131L924.344 402.764C923.496 403.793 922.644 404.82 921.786 405.843L921.021 405.201C920.166 406.221 919.305 407.238 918.439 408.252L919.198 408.9C918.33 409.916 917.456 410.928 916.578 411.938L915.825 411.283C914.95 412.289 914.069 413.293 913.184 414.292L913.931 414.954C913.048 415.95 912.16 416.942 911.268 417.931L910.526 417.263C909.636 418.25 908.741 419.234 907.841 420.214L908.576 420.889C907.674 421.871 906.766 422.849 905.854 423.824L905.125 423.144C904.215 424.117 903.3 425.086 902.38 426.053L903.103 426.741C902.181 427.71 901.253 428.674 900.321 429.636L899.605 428.942C898.68 429.898 897.749 430.85 896.813 431.799L897.524 432.5C896.59 433.448 895.65 434.392 894.706 435.333L894.001 434.626C893.059 435.565 892.112 436.5 891.161 437.432L891.86 438.145C890.907 439.078 889.949 440.009 888.986 440.936L888.293 440.217C887.332 441.142 886.367 442.063 885.397 442.98L886.083 443.705C885.111 444.625 884.136 445.543 883.155 446.455L882.474 445.723C881.502 446.626 880.526 447.527 879.545 448.424L880.218 449.16C879.235 450.059 878.248 450.954 877.257 451.845L876.59 451.103C875.6 451.992 874.606 452.878 873.607 453.761L874.268 454.508C873.267 455.392 872.262 456.273 871.252 457.15L870.599 456.396C869.591 457.272 868.58 458.144 867.563 459.012L868.212 459.771C867.197 460.638 866.176 461.5 865.152 462.359L864.512 461.596C863.495 462.449 862.473 463.3 861.448 464.146L862.085 464.917C861.057 465.765 860.024 466.608 858.988 467.449L858.36 466.675C857.327 467.514 856.289 468.35 855.247 469.182L855.869 469.962C854.825 470.795 853.777 471.624 852.725 472.45L852.108 471.665C851.058 472.489 850.003 473.31 848.944 474.127L849.554 474.917C848.499 475.731 847.442 476.542 846.38 477.349L845.775 476.552C844.717 477.354 843.656 478.154 842.59 478.949L843.186 479.749C842.117 480.546 841.046 481.34 839.97 482.13L839.379 481.324C838.305 482.112 837.227 482.896 836.146 483.677L836.729 484.486C835.645 485.268 834.557 486.046 833.465 486.82L832.888 486.007C831.798 486.779 830.705 487.548 829.607 488.312L830.179 489.132C829.088 489.892 827.993 490.648 826.895 491.4L826.331 490.578C825.235 491.329 824.135 492.077 823.031 492.82L823.59 493.647C822.484 494.393 821.374 495.134 820.261 495.871L819.71 495.039C818.599 495.775 817.484 496.507 816.365 497.235L816.909 498.071C815.789 498.801 814.665 499.528 813.537 500.25L812.999 499.409C811.876 500.128 810.749 500.842 809.619 501.553L810.149 502.397C809.024 503.105 807.895 503.81 806.763 504.51L806.238 503.661C805.108 504.36 803.973 505.056 802.835 505.747L803.354 506.601C802.214 507.293 801.07 507.98 799.923 508.665L799.412 507.809C798.267 508.492 797.118 509.171 795.967 509.847L796.473 510.709C795.319 511.386 794.161 512.057 793 512.726L792.502 511.861C791.348 512.526 790.191 513.187 789.03 513.844L789.522 514.712C788.365 515.367 787.204 516.02 786.04 516.667L785.555 515.794C784.393 516.44 783.227 517.082 782.059 517.721L782.537 518.597C781.366 519.236 780.192 519.871 779.015 520.503L778.543 519.624C777.368 520.254 776.189 520.881 775.007 521.503L775.473 522.386C774.288 523.009 773.101 523.629 771.91 524.244L771.452 523.357C770.271 523.968 769.086 524.575 767.898 525.178L768.35 526.068C767.164 526.67 765.975 527.268 764.782 527.862L764.337 526.969C763.147 527.562 761.953 528.15 760.757 528.735L761.194 529.632C759.995 530.218 758.794 530.801 757.589 531.379L757.157 530.479C755.955 531.055 754.749 531.629 753.54 532.197L753.965 533.1C752.754 533.669 751.539 534.235 750.322 534.797L749.904 533.891C748.698 534.447 747.488 535.001 746.275 535.55L746.688 536.46C745.476 537.009 744.26 537.551 743.042 538.092L742.638 537.18C741.422 537.719 740.203 538.255 738.981 538.786L739.38 539.701C738.156 540.234 736.93 540.763 735.7 541.287L735.309 540.367C734.081 540.89 732.851 541.41 731.618 541.925L732.003 542.845C730.767 543.361 729.529 543.873 728.288 544.381L727.911 543.457C726.682 543.96 725.449 544.459 724.214 544.954L724.585 545.881C723.35 546.376 722.112 546.866 720.871 547.353L720.508 546.423C719.27 546.909 718.028 547.391 716.784 547.868L717.142 548.8C715.896 549.278 714.648 549.754 713.396 550.224L713.046 549.288C711.797 549.757 710.545 550.223 709.291 550.684L709.635 551.62C708.378 552.082 707.119 552.539 705.857 552.992L705.521 552.054C704.27 552.503 703.017 552.948 701.762 553.389L702.093 554.332C700.838 554.773 699.579 555.207 698.319 555.64L697.995 554.696C696.737 555.128 695.477 555.556 694.214 555.979L694.531 556.925C693.266 557.349 691.999 557.772 690.729 558.188L690.418 557.237C689.15 557.652 687.879 558.063 686.606 558.47L686.91 559.42C685.635 559.827 684.357 560.231 683.077 560.63L682.78 559.678C681.512 560.073 680.24 560.464 678.967 560.852L679.256 561.808C677.984 562.194 676.709 562.576 675.432 562.954L675.148 561.997C673.873 562.375 672.596 562.749 671.316 563.118L671.593 564.076C670.311 564.446 669.027 564.813 667.74 565.175L667.471 564.214C666.187 564.575 664.9 564.932 663.611 565.284L663.874 566.247C662.583 566.6 661.29 566.948 659.994 567.293L659.738 566.329C658.453 566.671 657.164 567.008 655.874 567.342L656.123 568.309C654.836 568.641 653.546 568.971 652.255 569.295L652.012 568.326C650.722 568.65 649.431 568.97 648.138 569.285L648.373 570.254C647.077 570.57 645.779 570.881 644.479 571.188L644.25 570.218C642.952 570.525 641.652 570.828 640.35 571.126L640.572 572.1C639.268 572.398 637.962 572.692 636.653 572.982L636.438 572.008C635.137 572.296 633.833 572.58 632.528 572.86L632.737 573.836C631.438 574.115 630.136 574.39 628.833 574.66L628.631 573.683C627.33 573.952 626.026 574.218 624.721 574.479L624.916 575.459C623.609 575.721 622.299 575.977 620.988 576.23L620.799 575.251C619.49 575.504 618.179 575.752 616.866 575.996L617.048 576.977C615.733 577.221 614.416 577.463 613.097 577.699L612.922 576.716C611.607 576.951 610.291 577.182 608.973 577.408L609.141 578.393C607.832 578.618 606.521 578.837 605.208 579.054L605.046 578.069C603.735 578.285 602.423 578.498 601.108 578.705L601.264 579.69C599.947 579.898 598.629 580.103 597.309 580.303L597.161 579.314C595.843 579.513 594.523 579.708 593.202 579.898L593.344 580.886C592.02 581.076 590.695 581.262 589.368 581.444L589.233 580.456C587.909 580.638 586.582 580.815 585.254 580.988L585.382 581.978C584.063 582.149 582.744 582.318 581.422 582.481L581.3 581.489C579.982 581.652 578.663 581.81 577.343 581.964L577.457 582.955C576.134 583.109 574.81 583.259 573.483 583.404L573.375 582.413C572.051 582.558 570.726 582.699 569.398 582.836L569.5 583.829C568.171 583.966 566.839 584.098 565.507 584.227L565.412 583.232C564.082 583.36 562.75 583.484 561.417 583.604L561.505 584.597C560.176 584.716 558.846 584.83 557.514 584.94L557.433 583.946C556.111 584.056 554.787 584.161 553.462 584.262L553.537 585.257C552.21 585.358 550.881 585.455 549.551 585.547L549.483 584.551C548.156 584.643 546.826 584.73 545.495 584.813L545.557 585.81C544.224 585.893 542.889 585.972 541.554 586.047L541.499 585.051C540.166 585.125 538.83 585.196 537.494 585.262L537.542 586.259C536.204 586.325 534.864 586.387 533.523 586.444L533.481 585.446C532.158 585.503 530.832 585.556 529.506 585.604L529.541 586.601C528.212 586.649 526.882 586.692 525.551 586.731L525.522 585.734C524.193 585.774 522.862 585.808 521.53 585.839L521.553 586.837C520.219 586.868 518.883 586.894 517.547 586.916L517.531 585.918C516.197 585.94 514.861 585.958 513.524 585.971L513.533 586.969C512.194 586.982 510.854 586.99 509.513 586.994L509.51 585.997C508.84 585.999 508.17 586 507.5 586C506.829 586 506.158 585.999 505.488 585.997L505.485 586.994C504.144 586.99 502.804 586.982 501.465 586.969L501.475 585.971C500.138 585.958 498.802 585.94 497.468 585.918L497.451 586.916C496.115 586.894 494.779 586.868 493.445 586.837L493.468 585.839C492.136 585.808 490.806 585.774 489.477 585.734L489.447 586.731C488.116 586.692 486.786 586.649 485.457 586.601L485.493 585.604C484.167 585.556 482.841 585.503 481.517 585.446L481.475 586.444C480.133 586.387 478.794 586.325 477.455 586.259L477.505 585.262C476.169 585.196 474.834 585.125 473.5 585.051L473.444 586.047C472.109 585.972 470.774 585.893 469.441 585.81L469.504 584.813C468.173 584.73 466.843 584.643 465.516 584.551L465.447 585.547C464.117 585.455 462.788 585.358 461.461 585.257L461.537 584.262C460.212 584.161 458.888 584.056 457.566 583.946L457.484 584.94C456.152 584.83 454.822 584.716 453.493 584.597L453.583 583.604C452.25 583.484 450.917 583.36 449.587 583.232L449.491 584.227C448.159 584.098 446.828 583.965 445.498 583.828L445.601 582.836C444.273 582.699 442.948 582.558 441.624 582.413L441.515 583.404C440.189 583.259 438.864 583.109 437.541 582.955L437.657 581.964C436.336 581.81 435.017 581.652 433.699 581.489L433.577 582.481H433.576C432.254 582.318 430.935 582.149 429.616 581.978L429.746 580.988C428.418 580.815 427.091 580.638 425.767 580.456L425.631 581.444C424.304 581.262 422.978 581.076 421.654 580.886L421.797 579.898C420.476 579.708 419.156 579.513 417.839 579.314L417.689 580.303C416.369 580.103 415.051 579.898 413.734 579.69L413.891 578.705C412.576 578.498 411.264 578.285 409.953 578.069L409.791 579.054C408.478 578.837 407.167 578.618 405.857 578.393L406.027 577.408C404.709 577.182 403.393 576.951 402.078 576.716L401.901 577.699C400.582 577.463 399.265 577.221 397.95 576.977L398.133 575.996C396.82 575.752 395.509 575.504 394.2 575.251L394.011 576.23C392.699 575.977 391.39 575.721 390.082 575.459L390.278 574.479C388.973 574.218 387.67 573.952 386.369 573.683L386.166 574.66C384.863 574.39 383.561 574.115 382.262 573.836L382.472 572.86C381.167 572.58 379.863 572.296 378.562 572.008L378.346 572.982C377.037 572.692 375.731 572.398 374.427 572.1L374.649 571.126C373.347 570.828 372.048 570.525 370.75 570.218L370.52 571.188C369.219 570.881 367.921 570.57 366.625 570.254L366.862 569.285C365.569 568.97 364.277 568.65 362.987 568.326L362.744 569.295C361.453 568.971 360.163 568.641 358.876 568.309L359.126 567.342C357.836 567.008 356.548 566.671 355.262 566.329L355.005 567.293C353.709 566.948 352.416 566.6 351.125 566.247L351.389 565.284C350.1 564.932 348.813 564.575 347.529 564.214L347.259 565.175C345.972 564.813 344.688 564.447 343.406 564.077L343.684 563.118C342.404 562.749 341.127 562.375 339.852 561.997L339.567 562.954C338.29 562.576 337.015 562.194 335.743 561.808L336.033 560.852C334.76 560.464 333.488 560.073 332.22 559.678L331.922 560.63C330.642 560.231 329.364 559.827 328.089 559.42L328.394 558.47C327.121 558.063 325.85 557.652 324.582 557.237L324.271 558.188C323 557.772 321.733 557.349 320.468 556.925L320.786 555.979C319.523 555.556 318.263 555.128 317.005 554.696L316.68 555.64C315.42 555.207 314.161 554.773 312.906 554.332H312.907L313.238 553.389C311.983 552.948 310.73 552.503 309.479 552.054L309.142 552.992C307.88 552.539 306.621 552.082 305.364 551.62L305.709 550.684C304.455 550.223 303.203 549.757 301.954 549.288L301.603 550.224C300.351 549.754 299.103 549.278 297.857 548.8L298.216 547.868C296.972 547.391 295.731 546.909 294.493 546.424L294.128 547.353C292.888 546.866 291.65 546.377 290.415 545.882L290.786 544.954C289.551 544.459 288.319 543.96 287.09 543.457L286.711 544.381C285.47 543.873 284.232 543.362 282.997 542.846L283.382 541.925C282.149 541.41 280.919 540.891 279.691 540.368L279.3 541.287C278.07 540.763 276.844 540.234 275.62 539.701L276.019 538.786C274.797 538.255 273.579 537.719 272.363 537.18L271.957 538.092C270.739 537.551 269.523 537.009 268.312 536.461L268.725 535.55C267.512 535.001 266.302 534.447 265.096 533.891L264.677 534.797C263.46 534.235 262.245 533.669 261.034 533.1L261.46 532.197C260.251 531.629 259.045 531.055 257.843 530.479L257.41 531.379C256.205 530.801 255.004 530.218 253.805 529.632L254.244 528.735C253.048 528.15 251.853 527.562 250.663 526.969L250.218 527.862C249.025 527.268 247.836 526.671 246.649 526.069L247.102 525.178C245.914 524.575 244.729 523.968 243.548 523.357L243.089 524.244C241.899 523.629 240.711 523.01 239.527 522.387L239.993 521.503C238.811 520.881 237.632 520.254 236.457 519.624L235.984 520.503C234.807 519.871 233.633 519.236 232.462 518.597L232.941 517.721C231.773 517.082 230.607 516.44 229.445 515.794L228.959 516.668C227.795 516.021 226.635 515.367 225.478 514.712L225.97 513.844C224.809 513.187 223.653 512.526 222.499 511.861L222 512.727C220.839 512.058 219.681 511.386 218.527 510.709L219.033 509.847C217.882 509.171 216.733 508.492 215.589 507.809L215.076 508.665C213.929 507.98 212.785 507.293 211.646 506.601L212.165 505.747C211.028 505.056 209.893 504.361 208.763 503.662L208.236 504.511C207.104 503.811 205.975 503.105 204.85 502.397L205.381 501.554C204.251 500.843 203.124 500.128 202.001 499.409L201.462 500.25C200.334 499.528 199.21 498.801 198.09 498.071L198.635 497.235C197.516 496.507 196.401 495.775 195.29 495.039L194.738 495.871C193.625 495.134 192.516 494.393 191.41 493.648L191.969 492.82C190.865 492.077 189.765 491.329 188.669 490.578L188.104 491.4C187.007 490.648 185.912 489.893 184.821 489.133L185.393 488.313C184.295 487.549 183.202 486.779 182.112 486.007L181.534 486.82C180.443 486.046 179.354 485.269 178.271 484.487L178.855 483.677C177.774 482.896 176.695 482.113 175.621 481.325L175.029 482.13C173.953 481.34 172.881 480.546 171.812 479.749L172.411 478.95C171.345 478.155 170.283 477.356 169.225 476.553L168.62 477.349H168.619C167.557 476.542 166.5 475.731 165.445 474.917L166.056 474.128C164.997 473.311 163.943 472.49 162.893 471.666L162.274 472.45C161.222 471.624 160.174 470.795 159.13 469.962L159.754 469.182C158.712 468.35 157.673 467.514 156.64 466.675L156.011 467.449C154.975 466.608 153.942 465.765 152.915 464.917L153.552 464.146C152.527 463.3 151.506 462.449 150.489 461.596L149.847 462.36C148.823 461.501 147.803 460.638 146.788 459.771L147.438 459.012C146.421 458.144 145.409 457.273 144.401 456.397L143.747 457.15C142.738 456.273 141.732 455.393 140.731 454.509L141.393 453.761C140.394 452.878 139.4 451.993 138.41 451.104L137.742 451.845C136.751 450.954 135.764 450.059 134.781 449.16L135.455 448.424C134.474 447.527 133.498 446.627 132.526 445.724L131.846 446.455H131.845C130.863 445.542 129.888 444.625 128.916 443.705L129.603 442.98C128.633 442.063 127.668 441.142 126.707 440.217L126.014 440.937C125.051 440.01 124.093 439.079 123.14 438.145L123.839 437.432C122.888 436.5 121.941 435.565 120.999 434.626L120.293 435.333C119.349 434.392 118.409 433.448 117.475 432.5L118.188 431.799C117.252 430.85 116.321 429.898 115.396 428.942L114.678 429.637C113.746 428.675 112.818 427.711 111.896 426.742L112.621 426.054C111.701 425.087 110.785 424.117 109.875 423.144L109.146 423.825C108.234 422.849 107.325 421.871 106.423 420.889L107.159 420.214C106.259 419.234 105.364 418.25 104.474 417.263L103.731 417.932C102.839 416.943 101.951 415.951 101.068 414.955L101.817 414.292C100.932 413.292 100.051 412.29 99.1748 411.283L98.4209 411.938C97.5428 410.928 96.6696 409.916 95.8018 408.9L96.5615 408.252C95.6955 407.238 94.8343 406.221 93.9785 405.201L93.2129 405.843C92.3551 404.82 91.5027 403.794 90.6553 402.765L91.4268 402.131C90.5814 401.104 89.7412 400.073 88.9062 399.04L88.1289 399.668C87.2897 398.629 86.4565 397.587 85.6279 396.542L86.4102 395.922C85.5807 394.876 84.7563 393.826 83.9375 392.773L83.1484 393.387C82.3275 392.331 81.5133 391.272 80.7031 390.21L81.4971 389.605C80.689 388.546 79.8861 387.484 79.0889 386.419L78.2881 387.017C77.4887 385.948 76.6957 384.876 75.9072 383.802L76.7129 383.212C75.9265 382.14 75.1456 381.065 74.3701 379.987L73.5576 380.57C72.7762 379.484 72.0017 378.393 71.2314 377.301L72.0479 376.727C71.2793 375.636 70.5162 374.543 69.7588 373.446L68.9355 374.014C68.1763 372.915 67.4238 371.811 66.6758 370.706L67.5029 370.147C66.7568 369.045 66.0161 367.939 65.2812 366.83L64.4473 367.381C63.7108 366.27 62.9819 365.154 62.2568 364.037L63.0938 363.494C62.3685 362.377 61.6483 361.256 60.9346 360.133L60.0918 360.667C59.3747 359.538 58.6635 358.406 57.958 357.271L58.8066 356.745C58.1029 355.613 57.4049 354.478 56.7129 353.34L55.8594 353.858C55.1657 352.718 54.4778 351.574 53.7959 350.428L54.6543 349.918C53.9741 348.774 53.2993 347.627 52.6309 346.478L51.7676 346.979C51.0972 345.826 50.4329 344.67 49.7744 343.511L50.6426 343.018C49.9837 341.858 49.3304 340.696 48.6836 339.53L47.8105 340.014C47.1621 338.846 46.5191 337.675 45.8828 336.501L46.7617 336.025C46.127 334.854 45.4985 333.681 44.876 332.504L43.9932 332.97C43.369 331.79 42.7496 330.608 42.1377 329.423L43.0264 328.965C42.4161 327.783 41.8118 326.598 41.2139 325.41L40.3213 325.858C39.7207 324.666 39.1262 323.47 38.5381 322.271L39.4346 321.832C38.8475 320.636 38.267 319.436 37.6924 318.234L36.792 318.665C36.2158 317.46 35.6447 316.253 35.0811 315.042L35.9873 314.621C35.4254 313.414 34.8696 312.204 34.3203 310.992L33.4111 311.403C32.8603 310.188 32.3144 308.97 31.7764 307.749L32.6914 307.347C32.1546 306.129 31.6237 304.908 31.0996 303.685L30.1816 304.077C29.6557 302.849 29.1351 301.62 28.6221 300.387L29.5459 300.004C29.0343 298.774 28.5289 297.542 28.0303 296.308L27.1045 296.681C26.6045 295.443 26.11 294.203 25.623 292.96L26.5537 292.596C26.0681 291.356 25.5887 290.114 25.1162 288.869L24.1836 289.224C23.7098 287.976 23.2409 286.726 22.7803 285.473L23.7188 285.128C23.2595 283.879 22.8064 282.627 22.3604 281.373L21.4199 281.707C20.9726 280.449 20.5306 279.19 20.0967 277.928L21.042 277.604C20.6092 276.345 20.1831 275.083 19.7637 273.819L18.8164 274.133C18.3959 272.866 17.9793 271.598 17.5723 270.326L18.5264 270.021C18.1204 268.753 17.7206 267.482 17.3281 266.209L16.374 266.503C15.9809 265.228 15.5924 263.951 15.2129 262.672L16.1719 262.388C15.7936 261.112 15.4223 259.834 15.0576 258.555L14.0977 258.828C13.7319 257.545 13.3716 256.26 13.0195 254.972L13.9844 254.709C13.6334 253.425 13.2895 252.138 12.9521 250.85L11.9854 251.102C11.6471 249.809 11.3147 248.515 10.9902 247.219L11.96 246.978C11.6368 245.686 11.3211 244.392 11.0117 243.096L10.041 243.327C9.73156 242.031 9.42743 240.733 9.13184 239.433L10.1064 239.212C9.81169 237.915 9.52404 236.616 9.24316 235.315L8.26758 235.525C7.98586 234.221 7.70912 232.914 7.44141 231.605L8.4209 231.406C8.15398 230.101 7.8945 228.794 7.6416 227.485L6.66113 227.674C6.40755 226.361 6.16036 225.047 5.9209 223.73L6.90332 223.553C6.66567 222.246 6.43555 220.937 6.21191 219.627L5.22754 219.794C5.00343 218.481 4.78618 217.166 4.57617 215.849L5.5625 215.692C5.35306 214.379 5.15038 213.063 4.95508 211.746L3.96777 211.893C3.7719 210.572 3.583 209.249 3.40137 207.924L4.39062 207.789C4.20954 206.468 4.03596 205.146 3.86914 203.821L2.87793 203.945C2.71124 202.622 2.55183 201.297 2.39941 199.97L3.3916 199.856C3.24019 198.538 3.09523 197.218 2.95801 195.896L1.96484 195.999C1.82723 194.674 1.69754 193.346 1.57422 192.018L2.56836 191.927C2.44539 190.602 2.32936 189.275 2.2207 187.946L1.22461 188.026C1.11567 186.694 1.01542 185.361 0.920898 184.025L1.91602 183.956C1.82175 182.624 1.7351 181.291 1.65527 179.956L0.65625 180.015C0.576968 178.689 0.507391 177.361 0.442383 176.032L1.43945 175.984C1.37463 174.659 1.31616 173.332 1.26562 172.004L0.266602 172.041C0.215928 170.709 0.174945 169.375 0.138672 168.04L1.13574 168.014C1.09957 166.682 1.07058 165.349 1.04883 164.015L0.0507812 164.03C0.0289722 162.692 0.0141195 161.353 0.00683594 160.012L1.00586 160.007C1.00223 159.338 1 158.669 1 158C1 157.33 1.00222 156.66 1.00586 155.991L0.00683594 155.986C0.0141263 154.645 0.0289656 153.306 0.0507812 151.968L1.04883 151.983C1.07059 150.649 1.09956 149.316 1.13574 147.984L0.138672 147.958C0.174952 146.623 0.215921 145.289 0.266602 143.957L1.26562 143.995C1.31617 142.667 1.37461 141.339 1.43945 140.014L0.442383 139.965C0.507402 138.636 0.576958 137.308 0.65625 135.982L0.657227 135.983L1.65527 136.043C1.7351 134.708 1.82175 133.375 1.91602 132.043L0.920898 131.973C1.01543 130.637 1.11566 129.304 1.22461 127.972L2.2207 128.053C2.32936 126.724 2.44538 125.397 2.56836 124.072L1.57422 123.98C1.69755 122.652 1.82722 121.324 1.96484 119.999L2.95801 120.103C3.09524 118.781 3.24019 117.461 3.3916 116.143L2.39941 116.028C2.55184 114.701 2.71123 113.376 2.87793 112.053L3.86914 112.178C4.03596 110.853 4.20954 109.531 4.39062 108.21L3.40137 108.074C3.58296 106.75 3.77194 105.427 3.96777 104.106L4.95508 104.253C5.15038 102.936 5.35306 101.62 5.5625 100.307L4.57617 100.149C4.78618 98.8324 5.00342 97.5173 5.22754 96.2041L6.21191 96.3721C6.43555 95.0617 6.66664 93.7528 6.9043 92.4463L5.9209 92.2676C6.16037 90.9511 6.40754 89.6367 6.66113 88.3242L7.6416 88.5137C7.89451 87.2047 8.15397 85.8977 8.4209 84.5928L7.44141 84.3926C7.70913 83.0838 7.98586 81.7774 8.26758 80.4727L9.24316 80.6836C9.52402 79.3829 9.8117 78.0837 10.1064 76.7871L9.13184 76.5654C9.42744 75.265 9.73155 73.9671 10.041 72.6709L11.0117 72.9033C11.3211 71.6075 11.6378 70.314 11.9609 69.0225L10.9912 68.7793C11.3157 67.4828 11.6481 66.1887 11.9863 64.8965L12.9521 65.1504C13.2894 63.8619 13.6334 62.5751 13.9844 61.291L13.0195 61.0273C13.3716 59.7395 13.7319 58.4543 14.0977 57.1709L15.0576 57.4443C15.4223 56.1647 15.7946 54.8875 16.1729 53.6123L15.2139 53.3281L15.2129 53.3271C15.5924 52.0476 15.9809 50.771 16.374 49.4961L17.3281 49.791C17.7206 48.518 18.1204 47.2469 18.5264 45.9785L17.5732 45.6738L17.5723 45.6729C17.9794 44.401 18.3959 43.1324 18.8164 41.8652L19.7646 42.1807C20.184 40.917 20.6093 39.6554 21.042 38.3965L20.0967 38.0713C20.5306 36.8089 20.9727 35.5495 21.4199 34.292L22.3604 34.627C22.8064 33.3728 23.2595 32.1204 23.7188 30.8711L22.7803 30.5264C23.2409 29.2734 23.7098 28.0234 24.1836 26.7754L25.1162 27.1299C25.5887 25.8853 26.0681 24.6429 26.5537 23.4033L25.623 23.0391C26.1099 21.7962 26.6045 20.5562 27.1045 19.3184L28.0303 19.6924C28.5289 18.4578 29.0343 17.2256 29.5459 15.9961L28.6221 15.6123C29.1351 14.3794 29.6557 13.1496 30.1816 11.9219L31.0996 12.3154C31.6237 11.0921 32.1546 9.87144 32.6914 8.65332L31.7764 8.25C32.3144 7.02905 32.8603 5.81136 33.4111 4.5957L34.3203 5.00781C34.8696 3.79552 35.4254 2.58588 35.9873 1.37891L35.0811 0.956055C35.6445 -0.254242 36.2159 -1.46112 36.792 -2.66602L37.6924 -2.23438C38.267 -3.43608 38.8475 -4.63577 39.4346 -5.83203L38.5381 -6.27246C39.1262 -7.47087 39.7207 -8.66648 40.3213 -9.85938L41.2139 -9.41016C41.8118 -10.5978 42.4161 -11.7827 43.0264 -12.9648L42.1377 -13.4238C42.7496 -14.6092 43.369 -15.791 43.9932 -16.9707L44.876 -16.5039C45.4985 -17.6805 46.127 -18.8544 46.7617 -20.0254L45.8828 -20.502C46.5191 -21.6758 47.1621 -22.8465 47.8105 -24.0146L48.6836 -23.5303C49.3304 -24.6956 49.9837 -25.858 50.6426 -27.0176L49.7744 -27.5117C50.4329 -28.6705 51.0972 -29.8265 51.7676 -30.9795L52.6309 -30.4775C53.2992 -31.6271 53.9741 -32.7733 54.6543 -33.917L53.7959 -34.4287C54.4778 -35.5753 55.1657 -36.7187 55.8594 -37.8594L56.7129 -37.3398C57.4049 -38.4778 58.1029 -39.6131 58.8066 -40.7451L57.958 -41.2725C58.6635 -42.4073 59.3747 -43.5392 60.0918 -44.668L60.9346 -44.1318C61.6484 -45.2555 62.3684 -46.3765 63.0938 -47.4941L62.2559 -48.0371C62.9812 -49.1547 63.7106 -50.2703 64.4473 -51.3818L65.2812 -50.8301C66.016 -51.9387 66.7568 -53.044 67.5029 -54.1465L66.6758 -54.707C67.4237 -55.8122 68.1764 -56.9147 68.9355 -58.0137L69.7578 -57.4453C70.5153 -58.5418 71.2792 -59.6353 72.0479 -60.7256L71.2314 -61.3008C72.0019 -62.3937 72.776 -63.4847 73.5576 -64.5713L74.3701 -63.9873C75.1455 -65.0653 75.9265 -66.1402 76.7129 -67.2119L75.9072 -67.8027C76.1652 -68.1543 76.4225 -68.5065 76.6816 -68.8574L78.2881 -71.0176L79.0889 -70.418C79.8862 -71.4835 80.6889 -72.5463 81.4971 -73.6055L80.7031 -74.2109C81.0052 -74.6069 81.3067 -75.0034 81.6104 -75.3984L83.1484 -77.3877L83.9375 -76.7734C84.7564 -77.8262 85.5806 -78.8756 86.4102 -79.9219L85.627 -80.542C86.4556 -81.5871 87.2888 -82.6294 88.1279 -83.668L88.9053 -83.04C89.7403 -84.0734 90.5813 -85.104 91.4268 -86.1309L90.6553 -86.7646C91.5028 -87.7941 92.355 -88.8209 93.2129 -89.8438L93.9785 -89.2012C94.8341 -90.2213 95.6946 -91.2384 96.5605 -92.252L95.8008 -92.9014C96.6688 -93.9173 97.5427 -94.9292 98.4209 -95.9385L99.1748 -95.2832C100.05 -96.2894 100.931 -97.2925 101.816 -98.292L101.068 -98.9551C101.951 -99.9509 102.839 -100.943 103.731 -101.932L104.474 -101.263C105.364 -102.25 106.259 -103.234 107.159 -104.214L106.423 -104.89C107.325 -105.872 108.233 -106.85 109.146 -107.825L109.875 -107.144C110.785 -108.117 111.7 -109.086 112.62 -110.053L111.896 -110.742C112.818 -111.711 113.746 -112.675 114.678 -113.637L115.395 -112.942C116.32 -113.898 117.251 -114.85 118.187 -115.799L117.475 -116.501C118.409 -117.449 119.349 -118.393 120.293 -119.334L120.999 -118.626C121.941 -119.565 122.888 -120.5 123.839 -121.432L123.139 -122.146C124.092 -123.079 125.05 -124.01 126.013 -124.937L126.707 -124.217C127.668 -125.142 128.633 -126.063 129.603 -126.98L128.916 -127.706C129.888 -128.626 130.863 -129.544 131.844 -130.456L131.845 -130.455L132.526 -129.723C133.498 -130.626 134.474 -131.527 135.455 -132.424L134.781 -133.161C135.764 -134.059 136.751 -134.955 137.742 -135.846L138.41 -135.103C139.4 -135.992 140.394 -136.878 141.393 -137.761L140.731 -138.509C141.732 -139.393 142.737 -140.274 143.747 -141.151L144.401 -140.396C145.409 -141.272 146.42 -142.144 147.437 -143.012L146.787 -143.771C147.802 -144.639 148.823 -145.501 149.847 -146.36L150.488 -145.596C151.505 -146.449 152.527 -147.3 153.552 -148.146L152.915 -148.917L152.914 -148.918C153.942 -149.766 154.975 -150.609 156.011 -151.45L156.64 -150.675C157.673 -151.514 158.711 -152.35 159.753 -153.182L159.13 -153.963C160.174 -154.796 161.222 -155.625 162.274 -156.451L162.892 -155.665C163.942 -156.489 164.997 -157.31 166.056 -158.127L165.445 -158.918C166.5 -159.732 167.557 -160.543 168.619 -161.35L168.62 -161.349L169.225 -160.552C170.283 -161.354 171.344 -162.154 172.41 -162.949L171.812 -163.75C172.881 -164.547 173.953 -165.341 175.029 -166.131L175.621 -165.324C176.695 -166.112 177.773 -166.896 178.854 -167.677L178.27 -168.487C179.354 -169.269 180.442 -170.047 181.534 -170.821L182.112 -170.007C183.202 -170.779 184.295 -171.548 185.393 -172.312L184.82 -173.133C185.911 -173.893 187.006 -174.649 188.104 -175.401L188.669 -174.578C189.765 -175.329 190.865 -176.077 191.969 -176.82L191.409 -177.648C192.515 -178.394 193.625 -179.135 194.738 -179.872L195.29 -179.039C196.401 -179.775 197.516 -180.507 198.635 -181.235L198.09 -182.072C199.21 -182.802 200.334 -183.529 201.462 -184.251L202.001 -183.409C203.124 -184.128 204.251 -184.842 205.381 -185.553L204.85 -186.398C205.975 -187.106 207.104 -187.811 208.236 -188.512L208.762 -187.661C209.892 -188.36 211.026 -189.056 212.164 -189.747L211.646 -190.602C212.785 -191.294 213.929 -191.981 215.076 -192.666L215.588 -191.809C216.733 -192.492 217.882 -193.171 219.033 -193.847L218.527 -194.709L218.526 -194.71C219.68 -195.387 220.838 -196.058 221.999 -196.727L222.498 -195.861C223.652 -196.526 224.809 -197.187 225.97 -197.844L225.477 -198.713C226.634 -199.368 227.795 -200.021 228.959 -200.668L229.445 -199.794C230.607 -200.44 231.773 -201.082 232.941 -201.721L232.462 -202.598C233.633 -203.237 234.807 -203.872 235.984 -204.504L236.457 -203.624C237.632 -204.254 238.811 -204.881 239.992 -205.503L239.526 -206.387C240.711 -207.01 241.898 -207.63 243.089 -208.245L243.548 -207.357C244.729 -207.968 245.914 -208.575 247.102 -209.178L246.649 -210.069C247.835 -210.671 249.024 -211.269 250.217 -211.863L250.663 -210.969C251.853 -211.562 253.047 -212.15 254.243 -212.735L253.805 -213.633C254.166 -213.809 254.527 -213.986 254.889 -214.162L257.41 -215.38L257.843 -214.479C259.045 -215.055 260.251 -215.629 261.46 -216.197L261.034 -217.101C262.245 -217.67 263.46 -218.235 264.677 -218.797L265.096 -217.891C266.302 -218.447 267.512 -219.001 268.725 -219.55L268.312 -220.46L268.311 -220.461C269.523 -221.01 270.739 -221.552 271.957 -222.093L272.362 -221.18C273.578 -221.719 274.797 -222.255 276.019 -222.786L275.619 -223.702C276.843 -224.234 278.069 -224.764 279.299 -225.288L279.3 -225.287L279.691 -224.367C280.919 -224.89 282.149 -225.41 283.382 -225.925L282.996 -226.846C284.232 -227.362 285.47 -227.874 286.711 -228.382L287.089 -227.457C288.318 -227.96 289.551 -228.459 290.786 -228.954L290.414 -229.882C291.649 -230.377 292.887 -230.867 294.128 -231.354L294.493 -230.423C295.731 -230.909 296.972 -231.391 298.216 -231.868L297.857 -232.801C299.103 -233.279 300.351 -233.755 301.603 -234.225L301.954 -233.288C303.203 -233.757 304.455 -234.223 305.709 -234.684L305.364 -235.621C306.621 -236.083 307.88 -236.54 309.142 -236.993L309.479 -236.054C310.73 -236.503 311.983 -236.948 313.238 -237.389L312.907 -238.332L312.906 -238.333C314.161 -238.774 315.42 -239.208 316.68 -239.641L317.005 -238.696C318.263 -239.128 319.523 -239.556 320.786 -239.979L320.468 -240.926C321.733 -241.35 323 -241.773 324.271 -242.188L324.271 -242.188L324.582 -241.237C325.85 -241.652 327.121 -242.063 328.394 -242.47L328.089 -243.421C329.364 -243.828 330.642 -244.232 331.922 -244.631L332.22 -243.678C333.488 -244.073 334.76 -244.464 336.033 -244.852L335.743 -245.809C337.015 -246.195 338.29 -246.577 339.567 -246.955L339.852 -245.997C341.127 -246.375 342.404 -246.749 343.684 -247.118L343.406 -248.078C344.688 -248.448 345.972 -248.814 347.259 -249.176L347.529 -248.214C348.813 -248.575 350.1 -248.932 351.389 -249.284L351.125 -250.248C352.416 -250.601 353.709 -250.949 355.005 -251.294L355.262 -250.329C356.547 -250.671 357.836 -251.008 359.126 -251.342L358.876 -252.31C360.102 -252.627 361.33 -252.941 362.56 -253.25L362.744 -253.296L362.988 -252.326C364.278 -252.65 365.569 -252.97 366.862 -253.285L366.626 -254.255C367.922 -254.571 369.22 -254.882 370.52 -255.189L370.75 -254.218C372.048 -254.525 373.348 -254.828 374.65 -255.126L374.427 -256.101C375.731 -256.399 377.037 -256.693 378.346 -256.983L378.562 -256.008C379.863 -256.296 381.167 -256.58 382.472 -256.86L382.262 -257.837C383.561 -258.116 384.863 -258.391 386.166 -258.661L386.369 -257.683C387.67 -257.952 388.974 -258.218 390.279 -258.479L390.083 -259.46C391.39 -259.722 392.7 -259.978 394.011 -260.231L394.201 -259.251C395.51 -259.504 396.821 -259.752 398.134 -259.996L397.951 -260.978C399.266 -261.222 400.583 -261.464 401.902 -261.7L402.078 -260.716C403.393 -260.951 404.709 -261.182 406.027 -261.408L405.858 -262.394C407.167 -262.618 408.478 -262.838 409.791 -263.055L409.954 -262.069C411.265 -262.285 412.577 -262.498 413.892 -262.705L413.735 -263.691C415.043 -263.898 416.353 -264.102 417.664 -264.3L417.69 -264.304L417.839 -263.314C419.157 -263.513 420.477 -263.708 421.798 -263.898L421.655 -264.887C422.979 -265.077 424.304 -265.263 425.631 -265.445L425.767 -264.456C427.091 -264.638 428.418 -264.815 429.746 -264.988L429.617 -265.979C430.936 -266.15 432.255 -266.319 433.577 -266.482L433.578 -266.481L433.7 -265.489C435.018 -265.652 436.337 -265.81 437.657 -265.964L437.542 -266.956C438.865 -267.11 440.189 -267.26 441.516 -267.405L441.625 -266.413C442.949 -266.558 444.274 -266.699 445.602 -266.836L445.499 -267.83C446.828 -267.967 448.16 -268.099 449.492 -268.228L449.588 -267.232C450.918 -267.36 452.25 -267.484 453.583 -267.604L453.494 -268.598C454.823 -268.716 456.153 -268.831 457.485 -268.941L457.567 -267.946C458.889 -268.056 460.213 -268.161 461.538 -268.262L461.462 -269.258C462.789 -269.359 464.118 -269.456 465.448 -269.548L465.517 -268.551C466.844 -268.643 468.174 -268.73 469.505 -268.813L469.442 -269.811C470.775 -269.894 472.11 -269.973 473.445 -270.048L473.501 -269.051C474.834 -269.125 476.17 -269.196 477.506 -269.262L477.457 -270.26C478.795 -270.326 480.135 -270.388 481.476 -270.445L481.519 -269.446C482.842 -269.503 484.168 -269.556 485.494 -269.604L485.458 -270.602C486.787 -270.65 488.117 -270.693 489.448 -270.732L489.478 -269.734C490.807 -269.774 492.138 -269.808 493.47 -269.839L493.446 -270.838C494.78 -270.869 496.116 -270.895 497.452 -270.917L497.469 -269.918C498.803 -269.94 500.139 -269.958 501.476 -269.971L501.466 -270.97C502.805 -270.983 504.145 -270.991 505.486 -270.995L505.49 -269.997C506.16 -269.999 506.83 -270 507.5 -270C508.171 -270 508.842 -269.999 509.512 -269.997L509.514 -270.995C510.855 -270.991 512.195 -270.983 513.534 -270.97L513.525 -269.971C514.862 -269.958 516.198 -269.94 517.532 -269.918L517.548 -270.917C518.884 -270.895 520.22 -270.869 521.554 -270.838L521.532 -269.839C522.864 -269.808 524.194 -269.774 525.523 -269.734L525.552 -270.732C526.883 -270.693 528.213 -270.65 529.542 -270.602L529.507 -269.604C530.833 -269.556 532.159 -269.503 533.483 -269.446L533.524 -270.445C534.866 -270.388 536.205 -270.326 537.544 -270.26L537.495 -269.262C538.831 -269.196 540.166 -269.125 541.5 -269.051L541.555 -270.048C542.89 -269.973 544.225 -269.894 545.558 -269.811L545.496 -268.813C546.827 -268.73 548.157 -268.643 549.484 -268.551L549.552 -269.548C550.882 -269.456 552.211 -269.359 553.538 -269.258L553.463 -268.262C554.788 -268.161 556.112 -268.056 557.434 -267.946L557.515 -268.941C558.847 -268.831 560.177 -268.716 561.506 -268.598L561.417 -267.604C562.75 -267.484 564.083 -267.36 565.413 -267.232L565.508 -268.228C566.84 -268.099 568.171 -267.966 569.501 -267.829L569.399 -266.836C570.727 -266.699 572.052 -266.558 573.376 -266.413L573.484 -267.405C574.811 -267.26 576.135 -267.11 577.458 -266.956L577.343 -265.964C578.664 -265.81 579.983 -265.652 581.301 -265.489L581.423 -266.481V-266.482C582.745 -266.319 584.064 -266.15 585.383 -265.979L585.254 -264.988C586.582 -264.815 587.909 -264.638 589.233 -264.456L589.368 -265.445C590.695 -265.263 592.021 -265.077 593.345 -264.887L593.203 -263.898C594.524 -263.708 595.844 -263.513 597.161 -263.314L597.31 -264.304C598.63 -264.104 599.948 -263.899 601.265 -263.691L601.109 -262.705C602.424 -262.498 603.736 -262.285 605.047 -262.069L605.208 -263.055C606.521 -262.838 607.832 -262.619 609.142 -262.394L608.973 -261.408C610.291 -261.182 611.607 -260.951 612.922 -260.716L613.098 -261.7C614.417 -261.464 615.734 -261.222 617.049 -260.978L616.867 -259.996C618.18 -259.752 619.491 -259.504 620.8 -259.251L620.988 -260.231C622.3 -259.978 623.609 -259.722 624.917 -259.46L624.722 -258.479C626.027 -258.218 627.33 -257.952 628.631 -257.683L628.833 -258.661C630.136 -258.391 631.438 -258.116 632.737 -257.837L632.528 -256.86C633.833 -256.58 635.137 -256.296 636.438 -256.008L636.653 -256.983C637.962 -256.693 639.268 -256.399 640.572 -256.101L640.351 -255.126C641.653 -254.828 642.952 -254.525 644.25 -254.218L644.479 -255.189C645.78 -254.882 647.078 -254.571 648.374 -254.255L648.138 -253.285C649.431 -252.97 650.723 -252.65 652.013 -252.326L652.255 -253.296C653.546 -252.972 654.836 -252.642 656.123 -252.31L655.874 -251.342C657.164 -251.008 658.452 -250.671 659.738 -250.329L659.994 -251.294C661.29 -250.949 662.583 -250.601 663.874 -250.248L663.611 -249.284C664.9 -248.932 666.187 -248.575 667.471 -248.214L667.74 -249.176C669.027 -248.814 670.311 -248.447 671.593 -248.077L671.316 -247.118C672.596 -246.749 673.873 -246.375 675.148 -245.997L675.432 -246.955C676.709 -246.577 677.984 -246.195 679.256 -245.809L678.967 -244.852C680.24 -244.464 681.512 -244.073 682.78 -243.678L683.077 -244.631C684.357 -244.232 685.635 -243.828 686.91 -243.421L686.606 -242.47C687.879 -242.063 689.15 -241.652 690.418 -241.237L690.729 -242.188V-242.188C691.999 -241.773 693.266 -241.35 694.531 -240.926L694.214 -239.979C695.477 -239.556 696.737 -239.128 697.995 -238.696L698.319 -239.641C699.579 -239.208 700.838 -238.774 702.093 -238.333V-238.332L701.762 -237.389C703.017 -236.948 704.269 -236.503 705.52 -236.054L705.857 -236.993C707.119 -236.54 708.378 -236.083 709.635 -235.621L709.291 -234.684C710.545 -234.223 711.797 -233.757 713.046 -233.288L713.396 -234.225C714.648 -233.755 715.896 -233.279 717.142 -232.801L716.784 -231.868C718.028 -231.391 719.269 -230.909 720.507 -230.424L720.871 -231.354C722.111 -230.867 723.349 -230.377 724.584 -229.883L724.214 -228.954C725.449 -228.459 726.681 -227.96 727.91 -227.457L728.288 -228.382C729.529 -227.874 730.767 -227.363 732.002 -226.847L731.618 -225.925C732.851 -225.41 734.081 -224.891 735.309 -224.368L735.699 -225.288C736.929 -224.764 738.155 -224.234 739.379 -223.702L738.981 -222.786C740.203 -222.255 741.421 -221.719 742.637 -221.18L743.042 -222.093C744.26 -221.552 745.476 -221.01 746.688 -220.462V-220.461L746.275 -219.55C747.488 -219.001 748.698 -218.447 749.904 -217.891L750.322 -218.798C751.539 -218.236 752.754 -217.67 753.965 -217.101L753.54 -216.197C754.749 -215.629 755.955 -215.055 757.157 -214.479L757.589 -215.38C758.794 -214.802 759.995 -214.219 761.194 -213.633L760.756 -212.735C761.952 -212.15 763.147 -211.562 764.337 -210.969L764.781 -211.863C765.974 -211.269 767.163 -210.672 768.35 -210.07L767.898 -209.178C769.086 -208.575 770.271 -207.968 771.452 -207.357L771.91 -208.245C773.1 -207.63 774.288 -207.011 775.472 -206.388L775.007 -205.503C776.189 -204.881 777.368 -204.254 778.543 -203.624L779.015 -204.504C780.192 -203.872 781.366 -203.237 782.537 -202.598L782.059 -201.721C783.227 -201.082 784.393 -200.44 785.555 -199.794L786.04 -200.668V-200.669C787.204 -200.022 788.364 -199.368 789.521 -198.713L789.03 -197.844C790.191 -197.187 791.347 -196.526 792.501 -195.861L792.999 -196.728C794.16 -196.059 795.318 -195.387 796.472 -194.71L795.967 -193.847C797.118 -193.171 798.267 -192.492 799.411 -191.809L799.923 -192.666C801.07 -191.981 802.214 -191.294 803.354 -190.602L802.835 -189.747C803.972 -189.056 805.107 -188.361 806.237 -187.662L806.762 -188.512C807.895 -187.811 809.024 -187.107 810.149 -186.398L809.619 -185.554C810.749 -184.843 811.876 -184.128 812.999 -183.409L813.537 -184.251C814.665 -183.529 815.789 -182.802 816.909 -182.072L816.365 -181.235C817.484 -180.507 818.598 -179.775 819.709 -179.039L820.261 -179.872C821.374 -179.135 822.483 -178.394 823.589 -177.649L823.031 -176.82C824.135 -176.077 825.235 -175.329 826.331 -174.578L826.895 -175.401C827.992 -174.649 829.087 -173.894 830.178 -173.134L829.607 -172.313C830.705 -171.549 831.798 -170.779 832.888 -170.007L833.465 -170.821C834.557 -170.047 835.645 -169.269 836.729 -168.487L836.145 -167.677C837.226 -166.896 838.305 -166.113 839.379 -165.325L839.97 -166.131C841.046 -165.341 842.117 -164.547 843.186 -163.75L842.589 -162.95C843.655 -162.155 844.717 -161.356 845.775 -160.553L846.38 -161.349V-161.35C847.442 -160.543 848.499 -159.732 849.554 -158.918L848.944 -158.128C850.003 -157.311 851.057 -156.49 852.107 -155.666L852.725 -156.451C853.777 -155.625 854.825 -154.796 855.869 -153.963L855.246 -153.182C856.288 -152.35 857.327 -151.514 858.36 -150.675L858.988 -151.45C860.024 -150.609 861.057 -149.766 862.084 -148.918L861.448 -148.146C862.473 -147.3 863.494 -146.449 864.511 -145.596L865.152 -146.361C866.176 -145.502 867.196 -144.638 868.211 -143.771L867.562 -143.012C868.579 -142.144 869.591 -141.273 870.599 -140.397L871.252 -141.151C872.261 -140.274 873.267 -139.394 874.268 -138.51L873.607 -137.761C874.606 -136.878 875.6 -135.993 876.59 -135.104L877.257 -135.846C878.248 -134.955 879.235 -134.059 880.218 -133.161L879.545 -132.424C880.526 -131.527 881.502 -130.627 882.474 -129.724L883.154 -130.455V-130.456C884.136 -129.543 885.111 -128.626 886.083 -127.706L885.397 -126.98C886.367 -126.063 887.332 -125.142 888.293 -124.217L888.985 -124.938C889.948 -124.011 890.906 -123.079 891.859 -122.146L891.161 -121.432C892.112 -120.5 893.059 -119.565 894.001 -118.626L894.706 -119.334C895.65 -118.393 896.59 -117.449 897.524 -116.501L896.812 -115.799C897.748 -114.85 898.679 -113.898 899.604 -112.942L900.321 -113.638C901.253 -112.676 902.181 -111.712 903.103 -110.743L902.379 -110.054C903.299 -109.087 904.215 -108.117 905.125 -107.144L905.853 -107.826C906.765 -106.85 907.674 -105.872 908.576 -104.89H908.577L907.841 -104.214C908.741 -103.234 909.636 -102.25 910.526 -101.263L911.268 -101.933C912.16 -100.944 913.048 -99.9518 913.931 -98.9561L913.183 -98.292C914.068 -97.2924 914.949 -96.2896 915.825 -95.2832L916.578 -95.9385C917.456 -94.9294 918.329 -93.9172 919.197 -92.9014L918.438 -92.252C919.305 -91.2383 920.166 -90.2215 921.021 -89.2012L921.786 -89.8438C922.644 -88.821 923.496 -87.7949 924.344 -86.7656L923.573 -86.1309C924.419 -85.104 925.259 -84.0734 926.094 -83.04L926.87 -83.6689C927.709 -82.6304 928.542 -81.588 929.371 -80.543L928.59 -79.9219C929.419 -78.8757 930.244 -77.8261 931.062 -76.7734L931.851 -77.3877C932.671 -76.3323 933.486 -75.2728 934.296 -74.2109L933.503 -73.6055C934.311 -72.5464 935.114 -71.4844 935.911 -70.4189L936.711 -71.0176Z" stroke="#052F72" stroke-width="2" stroke-dasharray="4 4"/>
</svg>
